<?xml version="1.0" encoding="utf-8"?>
<!-- Generator: Adobe Illustrator 22.0.1, SVG Export Plug-In . SVG Version: 6.00 Build 0)  -->
<svg version="1.1" id="Layer_1" xmlns="http://www.w3.org/2000/svg" xmlns:xlink="http://www.w3.org/1999/xlink" x="0px" y="0px"
	 viewBox="0 0 57 57.7" style="enable-background:new 0 0 57 57.7;" xml:space="preserve">
<style type="text/css">
	.st0{fill:#EA3C3B;}
</style>
<g id="Layer_2_1_">
</g>
<g id="Layer_1_1_">
	<title>Chat X Night Bird logo</title>
	<path class="st0" d="M51.8,48.3C47.4,52,41.3,52.9,36,50.6c-2.6,1.2-5.5,1.8-8.3,1.8c-12,0-21.7-10.3-21.9-23.1c-0.3-1-0.4-2-0.5-3
		c0-1.3,0.1-2.5,0.5-3.7V5.7c0,0,6.8-0.2,10.3,3.2l0,0c7-4.8,16.2-4.8,23.2,0l0,0c3.4-3.4,10.3-3.2,10.3-3.2v16c1,2.7,1,5.7,0,8.4
		c-0.2,5.4-2.3,10.6-5.8,14.7C44.8,46.8,47.2,49.6,51.8,48.3z M38.1,36.6c5.9,0.2,10.8-4.4,11-10.3s-4.4-10.8-10.3-11
		s-10.8,4.4-11,10.3c0,0.2,0,0.5,0,0.7C27.9,31.9,32.5,36.4,38.1,36.6z M16.7,36.6c5.9,0.2,10.8-4.4,11-10.3s-4.4-10.8-10.3-11
		s-10.8,4.4-11,10.3c0,0.2,0,0.5,0,0.7C6.6,31.9,11.1,36.4,16.7,36.6z M27.8,33.5c0,0-2.1,2.3-4,2.9c0,0,1.4,5.1,4,7.3
		c2.5-2.2,4-7.3,4-7.3C29.8,35.8,27.8,33.6,27.8,33.5L27.8,33.5z M40.1,24.2c-0.9-0.1-1.5-0.8-1.6-1.6c-0.1-0.5,0.1-1.1,0.5-1.5
		c-2.6-0.3-5,1.6-5.3,4.3s1.6,5.1,4.3,5.3c2.7,0.3,5.1-1.6,5.3-4.3c0.1-1.3-0.3-2.7-1.2-3.7C41.9,23.7,41.1,24.3,40.1,24.2z
		 M18.7,24.2c-0.9-0.1-1.5-0.8-1.6-1.6c-0.1-0.5,0.1-1.1,0.5-1.5c-2.7-0.3-5.1,1.6-5.4,4.3l0,0c-0.3,2.7,1.6,5.1,4.3,5.3
		c2.7,0.3,5.1-1.6,5.3-4.3c0.1-1.3-0.3-2.7-1.2-3.7C20.5,23.6,19.7,24.2,18.7,24.2z"/>
</g>
</svg>
